<svg width="512" height="512" viewBox="0 0 512 512" fill="none" xmlns="http://www.w3.org/2000/svg">
<path d="M496 264H472V256C472 251.584 468.416 248 464 248H272C267.584 248 264 251.584 264 256V264H240C235.584 264 232 267.576 232 272V296H200V271.976C230.352 259.28 253.36 232.568 261.096 200H272C285.232 200 296 189.232 296 176V160C296 147.824 286.88 137.728 275.112 136.2L293.656 117.656C295.16 116.16 296 114.12 296 112V80C296 77.88 295.16 75.84 293.656 74.344L264 44.688V32C264 28.968 262.288 26.2 259.576 24.84L227.576 8.84C226.472 8.288 225.24 8 224 8H136C133.88 8 131.84 8.84 130.344 10.344L120 20.688L109.656 10.344C108.16 8.84 106.12 8 104 8H72C69.88 8 67.84 8.84 66.344 10.344L50.344 26.344C48.84 27.84 48 29.88 48 32V44.688L26.344 66.344C24.84 67.84 24 69.88 24 72V112C24 114.12 24.84 116.16 26.344 117.656L44.888 136.2C33.12 137.728 24 147.824 24 160V176C24 189.232 34.768 200 48 200H58.904C66.64 232.568 89.648 259.28 120 271.976V296H70.632C53.904 296 38.176 302.512 26.344 314.344C14.512 326.168 8 341.888 8 358.624V464C8 468.424 11.584 472 16 472H232V480C232 484.424 235.584 488 240 488H345.472C348.784 497.288 357.584 504 368 504C378.416 504 387.216 497.288 390.528 488H496C500.416 488 504 484.424 504 480V272C504 267.576 500.416 264 496 264ZM280 424H360V440H280V424ZM376 440V424H456V440H376ZM456 408H376V264H456V408ZM360 264V408H280V264H360ZM280 160V176C280 180.408 276.408 184 272 184H263.592C263.8 181.352 264 178.704 264 176V152H272C276.408 152 280 155.592 280 160ZM40 108.688V75.312L61.656 53.656C63.16 52.16 64 50.12 64 48V35.312L75.312 24H100.688L114.344 37.656C117.472 40.784 122.528 40.784 125.656 37.656L139.312 24H222.112L248 36.944V48C248 50.12 248.84 52.16 250.344 53.656L280 83.312V108.688L264 124.688V120C264 115.584 260.416 112 256 112H233.944C214.192 112 195.624 104.312 181.656 90.344C178.528 87.216 173.472 87.216 170.344 90.344C156.376 104.312 137.808 112 118.056 112H64C59.584 112 56 115.584 56 120V124.688L40 108.688ZM48 184C43.592 184 40 180.408 40 176V160C40 155.592 43.592 152 48 152H56V176C56 178.704 56.2 181.352 56.408 184H48ZM72 176V128H118.056C139.504 128 159.8 120.544 176 106.856C192.192 120.544 212.496 128 233.944 128H248V176C248 224.52 208.52 264 160 264C111.48 264 72 224.52 72 176V176ZM160 280C168.272 280 176.28 278.928 184 277.096V300.688L160 324.688L136 300.688V277.096C143.72 278.928 151.728 280 160 280ZM124.688 312L154.344 341.656C155.904 343.216 157.952 344 160 344C162.048 344 164.096 343.216 165.656 341.656L195.312 312H228.688L159.312 381.376L89.944 312H124.688ZM72 456V400H56V456H24V358.624C24 346.168 28.848 334.456 37.656 325.656C45.712 317.6 56.208 312.904 67.472 312.152L153.656 398.344C155.16 399.848 157.192 400.688 159.312 400.688C161.432 400.688 163.472 399.848 164.968 398.344L232 331.312V456H72ZM248 280H264V448C264 452.424 267.584 456 272 456H344V472H248V280ZM368 488C363.592 488 360 484.416 360 480V456H376V480C376 484.416 372.408 488 368 488ZM488 472H392V456H464C468.416 456 472 452.424 472 448V280H488V472Z" fill="black"/>
<path d="M296 376H344V392H296V376Z" fill="black"/>
<path d="M296 344H344V360H296V344Z" fill="black"/>
<path d="M296 312H344V328H296V312Z" fill="black"/>
<path d="M296 280H344V296H296V280Z" fill="black"/>
<path d="M392 344H440V360H392V344Z" fill="black"/>
<path d="M392 312H440V328H392V312Z" fill="black"/>
<path d="M392 280H440V296H392V280Z" fill="black"/>
<path d="M392 376H440V392H392V376Z" fill="black"/>
<path d="M104 144H120V176H104V144Z" fill="black"/>
<path d="M200 144H216V176H200V144Z" fill="black"/>
<path d="M192 216H176C176 224.824 168.824 232 160 232C151.176 232 144 224.824 144 216H128C128 233.648 142.352 248 160 248C177.648 248 192 233.648 192 216Z" fill="black"/>
<path d="M495.668 113.668C492.171 113.668 489.337 116.503 489.337 120C489.337 159.337 457.337 191.337 418 191.337C378.666 191.337 346.663 159.337 346.663 120C346.663 80.6657 378.666 48.6633 418 48.6633C421.497 48.6633 424.332 45.829 424.332 42.3318C424.332 38.8343 421.497 36 418 36C371.682 36 334 73.6819 334 120C334 166.316 371.682 204 418 204C464.316 204 502 166.316 502 120C502 116.503 499.166 113.668 495.668 113.668Z" fill="black"/>
<path d="M497.196 58.9671C494.725 56.4914 490.715 56.4871 488.243 58.9566L412.285 134.715L384.879 104.95C382.511 102.379 378.507 102.212 375.932 104.58C373.36 106.948 373.195 110.954 375.563 113.527L407.432 148.138C408.6 149.406 410.233 150.143 411.955 150.179C412.002 150.181 412.046 150.181 412.09 150.181C413.764 150.181 415.374 149.516 416.561 148.334L497.184 67.922C499.661 65.4528 499.666 61.4428 497.196 58.9671Z" fill="black"/>
</svg>
