<svg id="Capa_1" enable-background="new 0 0 511.989 511.989" height="512" viewBox="0 0 511.989 511.989" width="512" xmlns="http://www.w3.org/2000/svg"><path d="m63.426 303.715c37.123 55.964 57.567 124.594 57.568 193.247 0 8.283 6.714 14.999 14.997 15 0 0 150.002.027 150.003.027 3.978 0 7.793-1.58 10.605-4.393 2.813-2.813 4.395-6.629 4.395-10.607 0-24.935 20.607-46 45-46h60c8.284 0 15-6.716 15-15v-75c0-24.813 20.187-45 45-45 5.532 0 10.615-3.045 13.226-7.922 2.609-4.877 2.323-10.796-.745-15.398l-59.487-88.587c.007-20.941.007-33.216.007-33.216 0-59.254-63.8-157.505-170.255-169.583-117.768-13.362-217.745 79.446-217.745 194.706 0 38.49 11.214 75.741 32.431 107.726zm181.931-272.624c73.658 8.357 133.675 67.484 143.645 140.767 0 3.586-.001 16.73-.008 36.758-.001 2.963.875 5.859 2.519 8.325l49.343 73.381c-29.028 10.358-49.861 38.125-49.861 70.667v60h-45c-36.825 0-66.745 27.131-73.521 61.038l-121.77-.022c-2.655-68.303-23.575-136.526-62.277-194.873-17.946-27.054-27.432-58.57-27.432-91.143 0-96.21 83.207-176.373 184.362-164.898z"/><path d="m128.916 239.214c4.879 2.61 10.795 2.324 15.398-.744 20.114-13.409 45.533-14.709 66.68-3.91v44.501c-8.833-5.123-19.075-8.072-30-8.072h-15c-8.284 0-15 6.716-15 15v15c0 33.084 26.916 60 60 60h30c33.084 0 60-26.916 60-60v-15c0-8.284-6.716-15-15-15h-15c-10.925 0-21.167 2.949-30 8.072v-44.507c21.146-10.798 46.566-9.493 66.68 3.916 4.603 3.068 10.521 3.354 15.398.744s7.922-7.693 7.922-13.225v-121c0-5.015-2.507-9.699-6.68-12.481-29.681-19.788-67.308-21.429-98.32-4.952-31.012-16.477-68.639-14.836-98.32 4.952-4.173 2.782-6.68 7.466-6.68 12.481v121c.001 5.532 3.046 10.615 7.922 13.225zm52.079 61.775c16.542 0 30 13.458 30 30-16.542 0-30-13.458-30-30zm90 0c0 16.542-13.458 30-30 30 0-16.542 13.458-30 30-30zm30-187.435v88.58c-19.488-6.43-40.512-6.42-60 .009v-88.58c18.865-9.634 41.132-9.643 60-.009zm-150 0c18.865-9.633 41.135-9.633 60 0v88.58c-19.484-6.428-40.511-6.43-60 0z"/></svg>